<?xml version="1.0" standalone="no"?><!DOCTYPE svg PUBLIC "-//W3C//DTD SVG 1.1//EN" "http://www.w3.org/Graphics/SVG/1.1/DTD/svg11.dtd"><svg class="icon" width="200px" height="200.00px" viewBox="0 0 1024 1024" version="1.1" xmlns="http://www.w3.org/2000/svg"><path fill="#000000" d="M889.6 838.4l-192-192C742.4 595.2 768 524.8 768 448c0-179.2-140.8-320-320-320S128 268.8 128 448s140.8 320 320 320c76.8 0 147.2-25.6 198.4-70.4l192 192c12.8 12.8 32 12.8 44.8 0C896 876.8 896 851.2 889.6 838.4zM192 448c0-140.8 115.2-256 256-256s256 115.2 256 256c0 140.8-115.2 256-256 256S192 588.8 192 448z" /></svg>